<?xml version="1.0" encoding="UTF-8"?>
<svg xmlns="http://www.w3.org/2000/svg" xmlns:xlink="http://www.w3.org/1999/xlink" width="48px" height="48px" viewBox="0 0 48 40" version="1.1">
<g id="surface1">
<path style=" stroke:none;fill-rule:nonzero;fill:rgb(0%,0%,0%);fill-opacity:1;" d="M 33.113281 29.90625 C 38.214844 29.207031 42.320312 25.359375 43.5625 20.144531 C 45.261719 13.007812 40.3125 5.625 33.074219 4.492188 C 27.386719 3.605469 21.945312 6.125 18.964844 11.066406 C 18.660156 11.570312 18.328125 11.75 17.753906 11.730469 C 16.695312 11.691406 15.632812 11.71875 14.570312 11.710938 C 14.375 11.710938 14.164062 11.761719 13.996094 11.605469 C 13.917969 11.421875 14.023438 11.269531 14.085938 11.125 C 16.792969 5.019531 21.40625 1.257812 28.0625 0.234375 C 33.828125 -0.652344 38.882812 0.980469 43.015625 5.113281 C 45.867188 7.960938 47.5 11.453125 47.90625 15.453125 C 48.484375 21.1875 46.621094 26.042969 42.34375 29.933594 C 39.914062 32.148438 37.023438 33.496094 33.757812 34.011719 C 32.019531 34.289062 30.261719 34.144531 28.511719 34.164062 C 27.445312 34.175781 27.4375 34.164062 27.210938 35.21875 C 26.914062 36.609375 26.617188 38 26.34375 39.394531 C 26.261719 39.816406 26.070312 39.976562 25.628906 39.964844 C 24.570312 39.9375 23.507812 39.964844 22.445312 39.957031 C 21.878906 39.953125 21.835938 39.894531 21.957031 39.335938 C 22.597656 36.394531 23.246094 33.453125 23.882812 30.511719 C 23.957031 30.15625 24.144531 30.070312 24.484375 30.070312 C 26.625 30.078125 28.765625 30.082031 30.902344 30.0625 C 31.625 30.054688 32.347656 29.964844 33.113281 29.90625 Z M 33.113281 29.90625 "/>
<path style=" stroke:none;fill-rule:nonzero;fill:rgb(0%,0%,0%);fill-opacity:1;" d="M 26.855469 16.042969 C 29.617188 15.648438 31.972656 14.5 33.976562 12.65625 C 34.953125 11.757812 35.820312 10.738281 36.824219 9.875 C 38.117188 8.765625 37.824219 8.675781 39.03125 9.976562 C 41.128906 12.238281 41.980469 14.949219 41.824219 18 C 41.804688 18.390625 41.6875 18.535156 41.269531 18.457031 C 37.390625 17.707031 34.257812 19.082031 31.683594 21.898438 C 30.246094 23.46875 29.375 25.34375 28.988281 27.429688 C 28.921875 27.796875 28.707031 27.824219 28.414062 27.824219 C 26.441406 27.820312 24.46875 27.84375 22.5 27.8125 C 21.960938 27.804688 21.730469 27.964844 21.617188 28.503906 C 20.847656 32.152344 20.042969 35.792969 19.261719 39.441406 C 19.1875 39.792969 19.039062 39.957031 18.660156 39.953125 C 17.515625 39.9375 16.367188 39.9375 15.222656 39.953125 C 14.777344 39.960938 14.6875 39.796875 14.777344 39.375 C 15.617188 35.449219 16.4375 31.523438 17.269531 27.597656 C 18.082031 23.769531 18.898438 19.941406 19.722656 16.117188 C 19.964844 14.996094 19.875 15.175781 20.828125 15.488281 C 22.777344 16.128906 24.777344 16.28125 26.855469 16.042969 Z M 26.855469 16.042969 "/>
<path style=" stroke:none;fill-rule:nonzero;fill:rgb(0%,0%,0%);fill-opacity:1;" d="M 22.398438 10.316406 C 26.421875 5.546875 33.191406 5.609375 36.78125 8.15625 C 36.765625 8.199219 36.765625 8.265625 36.734375 8.289062 C 35.199219 9.523438 34.03125 11.140625 32.460938 12.34375 C 30.527344 13.820312 28.398438 14.738281 25.933594 14.871094 C 24.195312 14.96875 22.515625 14.761719 20.867188 14.207031 C 20.429688 14.058594 20.320312 13.859375 20.511719 13.433594 C 21 12.324219 21.589844 11.277344 22.398438 10.316406 Z M 22.398438 10.316406 "/>
<path style=" stroke:none;fill-rule:nonzero;fill:rgb(0%,0%,0%);fill-opacity:1;" d="M 34.210938 21.246094 C 35.636719 20.226562 37.183594 19.625 38.90625 19.484375 C 39.640625 19.425781 40.347656 19.527344 41.058594 19.683594 C 41.433594 19.761719 41.511719 19.9375 41.398438 20.289062 C 40.769531 22.269531 39.683594 23.960938 38.097656 25.3125 C 36.015625 27.082031 33.574219 27.910156 30.84375 27.914062 C 30.195312 27.914062 30.164062 27.859375 30.3125 27.207031 C 30.859375 24.746094 32.179688 22.789062 34.210938 21.246094 Z M 34.210938 21.246094 "/>
<path style=" stroke:none;fill-rule:nonzero;fill:rgb(0%,0%,0%);fill-opacity:1;" d="M 11.214844 20.3125 C 7.46875 20.09375 3.765625 19.878906 0 19.664062 C 0.183594 19.386719 0.402344 19.449219 0.589844 19.4375 C 3.996094 19.238281 7.402344 19.039062 10.808594 18.839844 C 12.503906 18.738281 14.199219 18.632812 15.898438 18.539062 C 16.449219 18.507812 16.480469 18.558594 16.367188 19.101562 C 16.285156 19.492188 16.203125 19.886719 16.117188 20.277344 C 16.070312 20.507812 15.945312 20.617188 15.695312 20.601562 C 14.21875 20.5 12.738281 20.410156 11.214844 20.3125 Z M 11.214844 20.3125 "/>
<path style=" stroke:none;fill-rule:nonzero;fill:rgb(0%,0%,0%);fill-opacity:1;" d="M 14.164062 15.566406 C 10.242188 15.320312 6.367188 15.078125 2.472656 14.832031 C 2.546875 14.554688 2.742188 14.613281 2.890625 14.605469 C 5.816406 14.429688 8.742188 14.265625 11.664062 14.089844 C 13.496094 13.980469 15.328125 13.855469 17.15625 13.722656 C 17.554688 13.695312 17.6875 13.8125 17.5625 14.207031 C 17.449219 14.574219 17.339844 14.945312 17.28125 15.324219 C 17.21875 15.695312 17.015625 15.785156 16.679688 15.757812 C 15.859375 15.6875 15.035156 15.632812 14.164062 15.566406 Z M 14.164062 15.566406 "/>
<path style=" stroke:none;fill-rule:nonzero;fill:rgb(0%,0%,0%);fill-opacity:1;" d="M 14.617188 23.664062 C 15.34375 23.648438 15.363281 23.648438 15.238281 24.300781 C 14.988281 25.582031 15.152344 25.457031 13.839844 25.367188 C 12.261719 25.257812 10.6875 25.121094 9.109375 25.007812 C 7.414062 24.890625 5.714844 24.78125 4.019531 24.664062 C 3.875 24.65625 3.714844 24.667969 3.597656 24.535156 C 3.6875 24.367188 3.851562 24.394531 3.992188 24.386719 C 6.832031 24.203125 9.671875 24.023438 12.511719 23.839844 C 13.199219 23.792969 13.882812 23.726562 14.617188 23.664062 Z M 14.617188 23.664062 "/>
<path style=" stroke:none;fill-rule:nonzero;fill:rgb(70.19608%,70.19608%,70.19608%);fill-opacity:1;" d="M 22.195312 39.878906 C 22.066406 39.855469 21.960938 39.777344 21.960938 39.710938 C 21.957031 39.421875 23.96875 30.390625 24.0625 30.273438 C 24.144531 30.175781 24.964844 30.144531 27.523438 30.144531 C 31.339844 30.144531 33.117188 30.023438 34.503906 29.675781 C 38.609375 28.640625 41.90625 25.472656 43.296875 21.222656 C 43.765625 19.789062 43.914062 18.859375 43.914062 17.292969 C 43.914062 15.714844 43.769531 14.796875 43.292969 13.316406 C 42.070312 9.535156 39.230469 6.511719 35.589844 5.113281 C 34.089844 4.539062 32.761719 4.308594 30.890625 4.304688 C 28.640625 4.300781 26.925781 4.65625 24.988281 5.535156 C 22.914062 6.476562 20.652344 8.417969 19.335938 10.382812 C 18.9375 10.980469 18.527344 11.476562 18.375 11.546875 C 18.203125 11.625 17.402344 11.664062 16.089844 11.664062 C 13.691406 11.664062 13.804688 11.773438 14.597656 10.199219 C 17.132812 5.179688 20.917969 2.039062 26.03125 0.726562 C 27.746094 0.285156 29.238281 0.0976562 31.03125 0.0976562 C 35.308594 0.101562 38.738281 1.421875 42.121094 4.367188 C 44.933594 6.820312 46.78125 9.984375 47.582031 13.71875 C 47.835938 14.90625 47.859375 15.226562 47.863281 17.34375 C 47.867188 19.1875 47.828125 19.855469 47.679688 20.589844 C 47.054688 23.652344 45.632812 26.386719 43.4375 28.742188 C 40.824219 31.542969 37.699219 33.25 33.953125 33.921875 C 33.136719 34.070312 31.503906 34.136719 27.960938 34.167969 C 27.675781 34.167969 27.535156 34.230469 27.425781 34.402344 C 27.34375 34.53125 27.058594 35.679688 26.792969 36.957031 C 26.242188 39.609375 26.183594 39.804688 25.871094 39.886719 C 25.621094 39.957031 22.554688 39.949219 22.195312 39.878906 Z M 22.195312 39.878906 "/>
<path style="fill-rule:nonzero;fill:rgb(58.823532%,77.64706%,6.666667%);fill-opacity:1;stroke-width:1.02683;stroke-linecap:butt;stroke-linejoin:miter;stroke:rgb(58.823532%,77.64706%,6.666667%);stroke-opacity:1;stroke-miterlimit:4;" d="M 232.697929 146.713341 C 224.045151 145.703133 206.198796 141.196049 204.151486 139.486466 C 202.142806 137.815736 202.490462 135.717611 205.889768 128.490736 C 217.47831 104.01261 237.796887 83.963859 261.244371 73.861775 C 277.275188 66.984587 286.198366 65.236149 305.473974 65.236149 C 319.496111 65.275003 323.977014 65.663545 331.355052 67.528545 C 340.394115 69.782087 350.630661 73.978337 358.549498 78.601983 L 362.837259 81.127504 L 344.604619 99.466672 C 323.629357 120.60334 313.701839 128.374173 297.825536 136.106153 C 276.888903 146.285945 257.033868 149.549695 232.697929 146.713341 Z M 232.697929 146.713341 " transform="matrix(0.101124,0,0,0.100536,0,0)"/>
<path style="fill-rule:nonzero;fill:rgb(58.823532%,77.64706%,6.666667%);fill-opacity:1;stroke-width:1.02683;stroke-linecap:butt;stroke-linejoin:miter;stroke:rgb(58.823532%,77.64706%,6.666667%);stroke-opacity:1;stroke-miterlimit:4;" d="M 147.638029 395.807417 C 145.899747 394.564083 144.238723 402.878875 179.313377 237.2047 C 195.151052 162.216154 197.391503 151.958654 198.048187 151.958654 C 198.202701 151.958654 201.52475 153.046571 205.426226 154.367612 C 219.371105 159.107821 229.839422 160.623133 247.994805 160.623133 C 266.729615 160.623133 275.768678 159.185529 291.104182 153.7848 C 313.315555 145.936258 323.8225 138.59282 352.407571 110.734381 C 363.262172 100.204901 373.18969 91.229588 374.464429 90.802192 C 376.434482 90.180526 377.786478 91.15188 383.271722 97.135422 C 402.779101 118.544069 411.818164 139.913862 412.899761 167.383759 C 413.208789 174.960322 413.015647 180.788447 412.43622 181.682093 C 411.586393 182.886572 409.654969 182.925426 399.534309 181.83751 C 379.370246 179.70053 361.523891 183.041989 344.488733 192.172718 C 316.328576 207.248136 295.70097 233.902096 287.820762 265.296264 C 286.661907 269.881056 285.271282 274.232723 284.691855 274.932098 C 283.919286 275.903452 275.923192 276.214285 251.046454 276.214285 C 221.495671 276.214285 218.212251 276.369702 216.242199 278.001577 C 214.349404 279.555744 212.263466 288.142515 202.29732 334.728663 C 189.163638 396.157104 189.820322 393.243042 188.506954 395.263458 C 187.309472 397.128458 150.148879 397.633563 147.638029 395.807417 Z M 147.638029 395.807417 " transform="matrix(0.101124,0,0,0.100536,0,0)"/>
<path style="fill-rule:nonzero;fill:rgb(58.823532%,77.64706%,6.666667%);fill-opacity:1;stroke-width:1.02683;stroke-linecap:butt;stroke-linejoin:miter;stroke:rgb(58.823532%,77.64706%,6.666667%);stroke-opacity:1;stroke-miterlimit:4;" d="M 300.490901 276.330848 C 299.370675 275.592619 299.486561 273.960744 301.340728 266.928139 C 311.500016 227.685429 346.767813 197.184906 385.048631 194.503969 C 394.860264 193.804594 406.912348 195.786156 408.534744 198.350531 C 410.118511 200.914906 403.204014 217.544491 395.903233 228.656783 C 378.829447 254.572513 352.948369 271.046681 321.929704 275.748035 C 310.959218 277.418765 302.576839 277.65189 300.490901 276.330848 Z M 300.490901 276.330848 " transform="matrix(0.101124,0,0,0.100536,0,0)"/>
<path style="fill-rule:nonzero;fill:rgb(58.823532%,77.64706%,6.666667%);fill-opacity:1;stroke-width:1.02683;stroke-linecap:butt;stroke-linejoin:miter;stroke:rgb(58.823532%,77.64706%,6.666667%);stroke-opacity:1;stroke-miterlimit:4;" d="M 118.589416 250.492826 C 105.880648 249.482617 84.171445 247.889596 70.342452 246.99595 C 43.495662 245.247513 35.96311 244.509284 36.774307 243.7322 C 37.160592 243.343659 75.209639 240.662721 140.028219 236.544179 L 150.689678 235.844804 L 149.955737 241.906054 C 149.105911 249.171784 147.135858 252.629805 144.006952 252.474388 C 142.732212 252.39668 131.298184 251.503034 118.589416 250.492826 Z M 118.589416 250.492826 " transform="matrix(0.101124,0,0,0.100536,0,0)"/>
<path style="fill-rule:nonzero;fill:rgb(58.823532%,77.64706%,6.666667%);fill-opacity:1;stroke-width:1.02683;stroke-linecap:butt;stroke-linejoin:miter;stroke:rgb(58.823532%,77.64706%,6.666667%);stroke-opacity:1;stroke-miterlimit:4;" d="M 136.049486 203.207302 C 130.13933 202.779906 100.781689 200.992615 70.844622 199.283031 C 12.476997 195.902719 1.158854 195.125635 1.77691 194.503969 C 2.472222 193.843448 160.848967 184.63501 161.428394 185.217822 C 162.046449 185.839489 159.844626 198.42824 158.531258 202.041677 C 157.565546 204.644907 155.827265 204.722615 136.049486 203.207302 Z M 136.049486 203.207302 " transform="matrix(0.101124,0,0,0.100536,0,0)"/>
<path style=" stroke:none;fill-rule:nonzero;fill:rgb(58.823532%,77.64706%,6.666667%);fill-opacity:1;" d="M 15.679688 15.628906 C 15.566406 15.609375 12.785156 15.429688 9.5 15.226562 C 3.695312 14.871094 2.589844 14.785156 2.667969 14.710938 C 2.6875 14.6875 4.78125 14.550781 7.324219 14.398438 C 9.863281 14.25 13.15625 14.042969 14.640625 13.945312 C 16.203125 13.835938 17.390625 13.796875 17.457031 13.851562 C 17.542969 13.917969 17.515625 14.171875 17.351562 14.789062 L 17.128906 15.640625 L 16.507812 15.652344 C 16.167969 15.660156 15.792969 15.652344 15.679688 15.628906 Z M 15.679688 15.628906 "/>
<path style=" stroke:none;fill-rule:nonzero;fill:rgb(58.823532%,77.64706%,6.666667%);fill-opacity:1;" d="M 14.117188 25.363281 C 14.097656 25.34375 13.820312 25.308594 13.5 25.292969 C 12.949219 25.261719 12.492188 25.230469 11.527344 25.152344 C 11.285156 25.136719 10.855469 25.101562 10.574219 25.082031 C 10.289062 25.0625 9.828125 25.027344 9.546875 25.007812 C 9.261719 24.984375 8.800781 24.949219 8.515625 24.933594 C 8.234375 24.914062 7.753906 24.878906 7.453125 24.859375 C 7.148438 24.839844 6.652344 24.804688 6.351562 24.785156 C 6.046875 24.765625 5.585938 24.730469 5.324219 24.710938 C 4.769531 24.664062 4.355469 24.636719 4.019531 24.613281 C 3.730469 24.597656 3.699219 24.460938 3.984375 24.460938 C 4.09375 24.460938 4.398438 24.441406 4.664062 24.417969 C 5.429688 24.351562 6.515625 24.273438 7.855469 24.191406 C 8.179688 24.171875 8.675781 24.140625 8.957031 24.121094 C 9.242188 24.101562 9.71875 24.070312 10.023438 24.050781 C 10.324219 24.03125 10.835938 24 11.160156 23.976562 C 12.894531 23.859375 13.699219 23.808594 14.550781 23.761719 L 15.222656 23.726562 L 15.191406 24.035156 C 15.171875 24.207031 15.15625 24.410156 15.15625 24.488281 C 15.15625 24.566406 15.121094 24.671875 15.074219 24.722656 C 15.03125 24.777344 15.023438 24.820312 15.050781 24.820312 C 15.082031 24.820312 15.066406 24.867188 15.015625 24.929688 C 14.964844 24.988281 14.949219 25.039062 14.980469 25.039062 C 15.015625 25.039062 14.964844 25.121094 14.867188 25.21875 C 14.746094 25.351562 14.617188 25.402344 14.425781 25.402344 C 14.28125 25.402344 14.140625 25.386719 14.117188 25.363281 Z M 14.117188 25.363281 "/>
<path style=" stroke:none;fill-rule:nonzero;fill:rgb(58.823532%,77.64706%,6.666667%);fill-opacity:1;" d="M 14.113281 20.46875 C 14.09375 20.445312 13.765625 20.414062 13.386719 20.398438 C 12.710938 20.367188 12.1875 20.339844 10.976562 20.261719 C 10.632812 20.242188 10.070312 20.207031 9.730469 20.1875 C 9.042969 20.152344 8.101562 20.097656 7.195312 20.039062 C 6.871094 20.019531 6.328125 19.988281 5.984375 19.96875 C 4.753906 19.902344 3.316406 19.8125 2.277344 19.742188 C 1.953125 19.722656 1.605469 19.703125 1.503906 19.707031 C 1.402344 19.707031 1.175781 19.6875 0.996094 19.664062 C 0.710938 19.628906 0.683594 19.613281 0.808594 19.542969 C 0.886719 19.5 1.21875 19.453125 1.542969 19.4375 C 1.863281 19.421875 2.378906 19.394531 2.679688 19.375 C 2.984375 19.355469 3.496094 19.324219 3.816406 19.304688 C 5.351562 19.214844 5.695312 19.195312 6.277344 19.15625 C 6.621094 19.132812 7.175781 19.101562 7.507812 19.082031 C 7.839844 19.0625 8.386719 19.03125 8.71875 19.011719 C 9.050781 18.996094 9.621094 18.960938 9.984375 18.941406 C 10.347656 18.921875 10.945312 18.886719 11.308594 18.867188 C 11.671875 18.84375 12.265625 18.808594 12.628906 18.789062 C 12.992188 18.769531 13.585938 18.738281 13.949219 18.71875 C 15.292969 18.648438 16.132812 18.625 16.21875 18.660156 C 16.273438 18.679688 16.304688 18.792969 16.292969 18.925781 C 16.253906 19.46875 16.179688 19.886719 16.113281 19.964844 C 16.078125 20.011719 16.066406 20.070312 16.089844 20.097656 C 16.117188 20.121094 16.085938 20.222656 16.019531 20.320312 C 15.910156 20.488281 15.871094 20.496094 15.027344 20.5 C 14.546875 20.503906 14.132812 20.488281 14.113281 20.46875 Z M 14.113281 20.46875 "/>
<path style=" stroke:none;fill-rule:nonzero;fill:rgb(58.823532%,77.64706%,6.666667%);fill-opacity:1;" d="M 14.832031 15.542969 C 14.429688 15.507812 11.964844 15.347656 9.363281 15.183594 C 4.226562 14.863281 3.132812 14.78125 3.066406 14.714844 C 3.042969 14.691406 3.125 14.671875 3.253906 14.671875 C 3.492188 14.671875 10.113281 14.269531 14.132812 14.011719 C 15.367188 13.933594 16.613281 13.871094 16.90625 13.871094 L 17.4375 13.871094 L 17.433594 14.144531 C 17.429688 14.292969 17.351562 14.679688 17.261719 15 L 17.097656 15.585938 L 16.332031 15.59375 C 15.910156 15.597656 15.234375 15.574219 14.832031 15.542969 Z M 14.832031 15.542969 "/>
<path style=" stroke:none;fill-rule:nonzero;fill:rgb(58.823532%,77.64706%,6.666667%);fill-opacity:1;" d="M 15.519531 39.898438 C 15.496094 39.875 15.355469 39.847656 15.210938 39.84375 C 15.039062 39.835938 14.929688 39.792969 14.90625 39.71875 C 14.863281 39.578125 14.921875 38.851562 14.984375 38.753906 C 15.007812 38.710938 15.042969 38.601562 15.058594 38.5 C 15.074219 38.402344 15.101562 38.242188 15.121094 38.140625 L 15.195312 37.777344 C 15.214844 37.675781 15.246094 37.519531 15.265625 37.429688 C 15.300781 37.273438 15.324219 37.148438 15.410156 36.71875 C 15.429688 36.617188 15.46875 36.386719 15.492188 36.207031 C 15.519531 36.027344 15.570312 35.84375 15.605469 35.800781 C 15.644531 35.753906 15.65625 35.699219 15.628906 35.675781 C 15.605469 35.648438 15.609375 35.570312 15.640625 35.5 C 15.699219 35.363281 15.71875 35.28125 15.769531 34.964844 C 15.886719 34.277344 15.917969 34.117188 15.957031 34.054688 C 15.980469 34.015625 16.007812 33.933594 16.015625 33.871094 C 16.027344 33.8125 16.050781 33.679688 16.070312 33.578125 C 16.089844 33.476562 16.128906 33.25 16.15625 33.070312 C 16.179688 32.890625 16.222656 32.710938 16.246094 32.671875 C 16.296875 32.59375 16.296875 32.578125 16.375 32.046875 C 16.398438 31.867188 16.453125 31.683594 16.488281 31.640625 C 16.527344 31.59375 16.535156 31.539062 16.511719 31.511719 C 16.484375 31.488281 16.492188 31.410156 16.519531 31.335938 C 16.585938 31.183594 16.605469 31.101562 16.667969 30.660156 C 16.691406 30.484375 16.734375 30.304688 16.761719 30.261719 C 16.785156 30.21875 16.816406 30.136719 16.824219 30.078125 C 16.933594 29.363281 17.015625 28.9375 17.058594 28.871094 C 17.101562 28.796875 17.105469 28.78125 17.183594 28.25 C 17.207031 28.070312 17.257812 27.886719 17.296875 27.84375 C 17.332031 27.796875 17.34375 27.742188 17.316406 27.71875 C 17.292969 27.691406 17.296875 27.613281 17.328125 27.542969 C 17.394531 27.390625 17.414062 27.304688 17.476562 26.867188 C 17.5 26.6875 17.542969 26.507812 17.566406 26.464844 C 17.59375 26.425781 17.621094 26.339844 17.632812 26.28125 C 17.742188 25.570312 17.824219 25.144531 17.867188 25.074219 C 17.890625 25.035156 17.917969 24.953125 17.925781 24.894531 C 17.933594 24.832031 17.960938 24.699219 17.980469 24.601562 C 18 24.5 18.039062 24.269531 18.0625 24.09375 C 18.089844 23.914062 18.128906 23.734375 18.15625 23.691406 C 18.203125 23.613281 18.207031 23.597656 18.28125 23.070312 C 18.308594 22.890625 18.351562 22.710938 18.375 22.671875 C 18.402344 22.628906 18.429688 22.546875 18.441406 22.484375 C 18.449219 22.421875 18.472656 22.292969 18.496094 22.191406 C 18.515625 22.089844 18.550781 21.863281 18.578125 21.683594 C 18.601562 21.503906 18.644531 21.324219 18.667969 21.28125 C 18.71875 21.203125 18.722656 21.191406 18.796875 20.660156 C 18.824219 20.480469 18.863281 20.300781 18.890625 20.261719 C 18.914062 20.21875 18.945312 20.136719 18.953125 20.074219 C 19.0625 19.371094 19.148438 18.9375 19.1875 18.875 C 19.207031 18.835938 19.238281 18.703125 19.25 18.582031 C 19.265625 18.457031 19.296875 18.308594 19.320312 18.25 C 19.375 18.117188 19.394531 18.023438 19.457031 17.59375 C 19.484375 17.417969 19.523438 17.238281 19.550781 17.195312 C 19.578125 17.152344 19.605469 17.054688 19.617188 16.972656 C 19.65625 16.71875 19.695312 16.535156 19.710938 16.535156 C 19.71875 16.535156 19.738281 16.417969 19.757812 16.277344 C 19.773438 16.136719 19.808594 15.972656 19.835938 15.914062 C 19.859375 15.851562 19.894531 15.707031 19.910156 15.585938 C 19.925781 15.46875 19.960938 15.351562 19.992188 15.324219 C 20.03125 15.289062 21.410156 15.652344 22.136719 15.894531 C 22.199219 15.914062 22.3125 15.941406 22.394531 15.953125 C 22.476562 15.964844 22.65625 15.992188 22.796875 16.011719 C 23.71875 16.148438 25.496094 16.191406 26.507812 16.097656 C 27.511719 16.007812 27.730469 15.972656 28.398438 15.777344 C 28.667969 15.695312 28.890625 15.648438 28.890625 15.671875 C 28.890625 15.695312 28.941406 15.671875 29.003906 15.621094 C 29.0625 15.570312 29.113281 15.554688 29.113281 15.585938 C 29.113281 15.613281 29.160156 15.597656 29.222656 15.546875 C 29.285156 15.5 29.332031 15.480469 29.332031 15.503906 C 29.332031 15.53125 29.410156 15.503906 29.5 15.441406 C 29.59375 15.382812 29.734375 15.320312 29.8125 15.304688 C 29.890625 15.292969 30.121094 15.207031 30.324219 15.117188 C 30.527344 15.027344 30.722656 14.949219 30.761719 14.941406 C 30.800781 14.933594 30.878906 14.886719 30.933594 14.835938 C 30.988281 14.785156 31.0625 14.761719 31.101562 14.785156 C 31.136719 14.808594 31.167969 14.785156 31.167969 14.738281 C 31.167969 14.6875 31.1875 14.667969 31.214844 14.691406 C 31.238281 14.714844 31.296875 14.707031 31.339844 14.667969 C 31.445312 14.578125 32.640625 13.796875 32.667969 13.796875 C 32.6875 13.796875 32.878906 13.632812 33.84375 12.785156 C 34.332031 12.355469 35.082031 11.660156 36.167969 10.632812 C 36.554688 10.265625 37.035156 9.824219 37.230469 9.648438 C 37.429688 9.476562 37.644531 9.289062 37.710938 9.230469 C 37.925781 9.03125 38.113281 9.117188 38.628906 9.636719 C 38.90625 9.921875 39.148438 10.191406 39.164062 10.242188 C 39.179688 10.289062 39.253906 10.371094 39.328125 10.425781 C 39.40625 10.476562 39.464844 10.566406 39.464844 10.625 C 39.464844 10.683594 39.496094 10.730469 39.535156 10.730469 C 39.675781 10.730469 40.992188 12.910156 41.011719 13.175781 C 41.011719 13.195312 41.0625 13.324219 41.121094 13.464844 C 41.179688 13.605469 41.238281 13.777344 41.253906 13.847656 C 41.265625 13.921875 41.296875 14.027344 41.324219 14.089844 C 41.417969 14.328125 41.511719 14.773438 41.480469 14.824219 C 41.460938 14.855469 41.476562 14.902344 41.519531 14.925781 C 41.558594 14.953125 41.59375 15.042969 41.59375 15.132812 C 41.59375 15.21875 41.613281 15.425781 41.636719 15.585938 C 41.71875 16.1875 41.777344 17.0625 41.773438 17.605469 C 41.765625 18.332031 41.695312 18.425781 41.195312 18.367188 C 40.109375 18.234375 38.785156 18.203125 38.105469 18.289062 C 37.90625 18.316406 37.664062 18.34375 37.574219 18.351562 C 37.484375 18.363281 37.386719 18.390625 37.359375 18.417969 C 37.332031 18.445312 37.242188 18.46875 37.160156 18.46875 C 37.074219 18.46875 36.675781 18.585938 36.269531 18.726562 C 35.867188 18.867188 35.503906 18.988281 35.464844 19 C 35.421875 19.007812 35.375 19.039062 35.351562 19.066406 C 35.332031 19.089844 35.265625 19.125 35.207031 19.136719 C 35.148438 19.152344 35.054688 19.203125 35 19.253906 C 34.945312 19.304688 34.871094 19.328125 34.832031 19.304688 C 34.796875 19.28125 34.765625 19.292969 34.765625 19.328125 C 34.765625 19.390625 34.5 19.539062 34.371094 19.546875 C 34.335938 19.550781 34.285156 19.578125 34.261719 19.613281 C 34.234375 19.648438 34 19.828125 33.738281 20.011719 C 32.71875 20.730469 32.011719 21.382812 31.390625 22.183594 C 31.167969 22.46875 30.960938 22.703125 30.929688 22.703125 C 30.898438 22.703125 30.875 22.730469 30.875 22.765625 C 30.875 22.804688 30.703125 23.109375 30.488281 23.445312 C 30.277344 23.78125 30.039062 24.203125 29.957031 24.382812 C 29.878906 24.5625 29.785156 24.730469 29.75 24.753906 C 29.714844 24.777344 29.691406 24.828125 29.695312 24.863281 C 29.703125 24.921875 29.515625 25.46875 29.308594 25.988281 C 29.269531 26.085938 29.226562 26.234375 29.210938 26.316406 C 29.195312 26.394531 29.164062 26.511719 29.136719 26.570312 C 29.113281 26.632812 29.085938 26.730469 29.078125 26.789062 C 29.046875 27.054688 28.800781 27.667969 28.722656 27.679688 C 28.382812 27.726562 27.789062 27.746094 25.257812 27.777344 C 22.066406 27.816406 22.023438 27.820312 21.878906 27.964844 C 21.773438 28.070312 21.402344 29.261719 21.402344 29.496094 C 21.402344 29.566406 21.371094 29.648438 21.328125 29.675781 C 21.289062 29.699219 21.273438 29.75 21.296875 29.789062 C 21.320312 29.824219 21.3125 29.894531 21.28125 29.945312 C 21.25 29.996094 21.214844 30.101562 21.203125 30.183594 C 21.167969 30.4375 21.128906 30.621094 21.113281 30.621094 C 21.105469 30.621094 21.085938 30.734375 21.066406 30.875 C 21.046875 31.011719 20.996094 31.257812 20.949219 31.421875 C 20.90625 31.582031 20.855469 31.816406 20.839844 31.9375 C 20.828125 32.058594 20.792969 32.203125 20.769531 32.265625 C 20.710938 32.398438 20.667969 32.621094 20.664062 32.792969 C 20.660156 32.863281 20.628906 32.9375 20.59375 32.960938 C 20.558594 32.980469 20.546875 33.046875 20.570312 33.101562 C 20.589844 33.160156 20.582031 33.246094 20.550781 33.296875 C 20.519531 33.347656 20.484375 33.488281 20.472656 33.609375 C 20.457031 33.726562 20.410156 33.957031 20.363281 34.121094 C 20.316406 34.285156 20.273438 34.46875 20.265625 34.527344 C 20.226562 34.84375 20.132812 35.304688 20.09375 35.367188 C 20.070312 35.40625 20.046875 35.488281 20.042969 35.546875 C 20.019531 35.796875 19.914062 36.320312 19.875 36.386719 C 19.851562 36.425781 19.824219 36.554688 19.808594 36.679688 C 19.796875 36.800781 19.765625 36.949219 19.742188 37.007812 C 19.683594 37.140625 19.664062 37.234375 19.605469 37.664062 C 19.578125 37.84375 19.535156 38.023438 19.511719 38.0625 C 19.484375 38.105469 19.457031 38.1875 19.449219 38.25 C 19.347656 38.925781 19.164062 39.632812 19.058594 39.734375 C 19.019531 39.773438 18.828125 39.824219 18.632812 39.839844 C 17.972656 39.898438 15.566406 39.945312 15.519531 39.898438 Z M 15.519531 39.898438 "/>
<path style=" stroke:none;fill-rule:nonzero;fill:rgb(58.823532%,77.64706%,6.666667%);fill-opacity:1;" d="M 24.703125 14.863281 C 24.679688 14.839844 24.414062 14.804688 24.117188 14.789062 C 23.816406 14.769531 23.46875 14.738281 23.347656 14.71875 C 23.226562 14.699219 22.988281 14.667969 22.816406 14.644531 C 22.644531 14.621094 22.441406 14.570312 22.367188 14.53125 C 22.292969 14.492188 22.210938 14.480469 22.183594 14.503906 C 22.160156 14.527344 22.09375 14.511719 22.039062 14.464844 C 21.984375 14.417969 21.925781 14.398438 21.90625 14.417969 C 21.851562 14.472656 20.757812 14.117188 20.648438 14.007812 C 20.59375 13.949219 20.554688 13.792969 20.5625 13.652344 C 20.574219 13.390625 21.058594 12.34375 21.210938 12.246094 C 21.253906 12.21875 21.265625 12.191406 21.234375 12.191406 C 21.15625 12.191406 21.414062 11.753906 21.492188 11.753906 C 21.523438 11.753906 21.550781 11.714844 21.550781 11.671875 C 21.550781 11.550781 22.136719 10.746094 22.257812 10.699219 C 22.320312 10.675781 22.347656 10.628906 22.328125 10.597656 C 22.25 10.472656 24.183594 8.617188 24.394531 8.613281 C 24.445312 8.613281 24.488281 8.585938 24.488281 8.550781 C 24.488281 8.515625 24.617188 8.398438 24.78125 8.292969 C 24.941406 8.1875 25.074219 8.117188 25.074219 8.140625 C 25.074219 8.164062 25.144531 8.117188 25.230469 8.035156 C 25.320312 7.953125 25.417969 7.90625 25.453125 7.925781 C 25.488281 7.949219 25.515625 7.929688 25.515625 7.882812 C 25.515625 7.839844 25.546875 7.824219 25.589844 7.847656 C 25.628906 7.871094 25.660156 7.863281 25.660156 7.824219 C 25.660156 7.789062 25.882812 7.65625 26.15625 7.535156 C 26.847656 7.21875 27.421875 7 27.421875 7.054688 C 27.421875 7.078125 27.464844 7.066406 27.515625 7.023438 C 27.609375 6.949219 28.074219 6.808594 28.4375 6.746094 C 29.273438 6.605469 29.707031 6.582031 31.09375 6.597656 C 32.617188 6.617188 33.304688 6.664062 33.46875 6.769531 C 33.511719 6.792969 33.617188 6.824219 33.699219 6.832031 C 33.78125 6.84375 33.949219 6.890625 34.070312 6.941406 C 34.191406 6.988281 34.355469 7.042969 34.433594 7.058594 C 34.511719 7.074219 34.652344 7.132812 34.746094 7.195312 C 34.835938 7.253906 34.914062 7.285156 34.914062 7.261719 C 34.914062 7.242188 35.019531 7.28125 35.152344 7.347656 C 35.28125 7.417969 35.414062 7.46875 35.445312 7.460938 C 35.476562 7.453125 35.5 7.480469 35.5 7.523438 C 35.5 7.566406 35.535156 7.578125 35.574219 7.554688 C 35.613281 7.53125 35.648438 7.546875 35.648438 7.589844 C 35.648438 7.636719 35.679688 7.652344 35.71875 7.628906 C 35.761719 7.601562 35.792969 7.617188 35.792969 7.660156 C 35.792969 7.703125 35.820312 7.730469 35.851562 7.71875 C 35.933594 7.695312 36.453125 7.976562 36.453125 8.046875 C 36.453125 8.078125 36.503906 8.101562 36.566406 8.101562 C 36.625 8.101562 36.675781 8.128906 36.675781 8.160156 C 36.675781 8.191406 36.003906 8.871094 35.183594 9.675781 C 32.960938 11.84375 32.515625 12.238281 31.59375 12.851562 C 31.234375 13.089844 30.890625 13.285156 30.832031 13.285156 C 30.773438 13.285156 30.726562 13.324219 30.726562 13.371094 C 30.726562 13.417969 30.707031 13.433594 30.683594 13.410156 C 30.65625 13.386719 30.589844 13.414062 30.53125 13.472656 C 30.46875 13.53125 30.390625 13.558594 30.355469 13.539062 C 30.316406 13.515625 30.289062 13.527344 30.289062 13.566406 C 30.289062 13.640625 30.09375 13.726562 29.964844 13.714844 C 29.929688 13.714844 29.878906 13.742188 29.855469 13.777344 C 29.742188 13.945312 27.679688 14.65625 27.582031 14.5625 C 27.5625 14.542969 27.507812 14.5625 27.457031 14.601562 C 27.375 14.667969 26.960938 14.734375 26.285156 14.785156 C 26.125 14.796875 25.710938 14.832031 25.367188 14.859375 C 25.023438 14.886719 24.726562 14.890625 24.703125 14.863281 Z M 24.703125 14.863281 "/>
<path style=" stroke:none;fill-rule:nonzero;fill:rgb(58.823532%,77.64706%,6.666667%);fill-opacity:1;" d="M 15.199219 39.871094 C 14.933594 39.824219 14.902344 39.796875 14.882812 39.585938 C 14.851562 39.269531 15.125 37.921875 17.445312 27.007812 C 19.597656 16.894531 19.925781 15.390625 19.996094 15.316406 C 20.023438 15.289062 20.292969 15.347656 20.59375 15.445312 C 22.277344 15.992188 23.695312 16.175781 25.691406 16.113281 C 27.1875 16.0625 27.9375 15.9375 29.136719 15.542969 C 31.46875 14.769531 32.539062 14.050781 35.5 11.246094 C 37.324219 9.519531 37.785156 9.125 37.96875 9.125 C 38.3125 9.125 39.855469 10.945312 40.488281 12.105469 C 41.351562 13.6875 41.734375 15.214844 41.765625 17.230469 C 41.78125 18.484375 41.835938 18.4375 40.5625 18.320312 C 38.339844 18.113281 36.707031 18.398438 34.964844 19.285156 C 32.140625 20.726562 30.109375 23.253906 29.1875 26.460938 C 28.882812 27.527344 28.828125 27.652344 28.652344 27.707031 C 28.570312 27.734375 27.03125 27.777344 25.238281 27.800781 C 21.5 27.855469 21.875 27.769531 21.621094 28.621094 C 21.464844 29.144531 20.984375 31.285156 19.9375 36.132812 C 19.570312 37.839844 19.234375 39.34375 19.191406 39.476562 C 19.140625 39.632812 19.042969 39.746094 18.917969 39.792969 C 18.691406 39.882812 15.632812 39.945312 15.199219 39.871094 Z M 15.199219 39.871094 "/>
<path style=" stroke:none;fill-rule:nonzero;fill:rgb(58.823532%,77.64706%,6.666667%);fill-opacity:1;" d="M 30.445312 27.808594 C 30.300781 27.75 30.277344 27.703125 30.316406 27.539062 C 30.339844 27.425781 30.378906 27.226562 30.398438 27.089844 C 30.421875 26.953125 30.460938 26.808594 30.488281 26.761719 C 30.515625 26.71875 30.542969 26.632812 30.546875 26.574219 C 30.566406 26.375 30.75 25.839844 30.796875 25.839844 C 30.824219 25.839844 30.847656 25.769531 30.855469 25.683594 C 30.863281 25.597656 30.90625 25.503906 30.949219 25.472656 C 30.996094 25.445312 31.023438 25.40625 31.007812 25.390625 C 30.96875 25.332031 31.335938 24.601562 31.40625 24.601562 C 31.441406 24.601562 31.449219 24.566406 31.425781 24.527344 C 31.402344 24.488281 31.414062 24.453125 31.457031 24.453125 C 31.5 24.453125 31.535156 24.414062 31.535156 24.363281 C 31.535156 24.238281 32.117188 23.386719 32.417969 23.066406 C 32.546875 22.925781 32.710938 22.730469 32.773438 22.636719 C 32.929688 22.398438 34.1875 21.316406 34.304688 21.316406 C 34.355469 21.316406 34.398438 21.28125 34.398438 21.242188 C 34.398438 21.199219 34.488281 21.125 34.601562 21.078125 C 34.710938 21.027344 34.847656 20.945312 34.902344 20.894531 C 35.046875 20.753906 36.160156 20.207031 36.164062 20.273438 C 36.164062 20.304688 36.1875 20.292969 36.21875 20.25 C 36.316406 20.109375 37.640625 19.691406 38.144531 19.640625 C 38.203125 19.636719 38.402344 19.617188 38.585938 19.597656 C 39.496094 19.507812 40.621094 19.59375 41.097656 19.789062 C 41.320312 19.882812 41.425781 20.105469 41.308594 20.25 C 41.265625 20.300781 41.246094 20.359375 41.269531 20.382812 C 41.292969 20.40625 41.253906 20.550781 41.183594 20.707031 C 41.117188 20.859375 41.050781 21.027344 41.039062 21.074219 C 40.996094 21.277344 40.539062 22.191406 40.480469 22.191406 C 40.449219 22.191406 40.425781 22.214844 40.433594 22.246094 C 40.453125 22.332031 40.253906 22.703125 40.1875 22.703125 C 40.152344 22.703125 40.125 22.75 40.125 22.8125 C 40.125 22.871094 40.058594 22.988281 39.980469 23.066406 C 39.898438 23.148438 39.832031 23.242188 39.832031 23.273438 C 39.832031 23.375 38.699219 24.695312 38.394531 24.949219 C 38.238281 25.082031 38.023438 25.269531 37.921875 25.367188 C 37.820312 25.46875 37.699219 25.550781 37.65625 25.550781 C 37.609375 25.550781 37.554688 25.597656 37.53125 25.660156 C 37.507812 25.71875 37.4375 25.769531 37.375 25.769531 C 37.3125 25.769531 37.261719 25.800781 37.261719 25.839844 C 37.261719 25.882812 37.214844 25.914062 37.152344 25.914062 C 37.09375 25.914062 37.042969 25.945312 37.042969 25.988281 C 37.042969 26.027344 37.007812 26.058594 36.964844 26.058594 C 36.921875 26.058594 36.820312 26.125 36.734375 26.203125 C 36.648438 26.28125 36.550781 26.328125 36.515625 26.308594 C 36.484375 26.289062 36.453125 26.300781 36.453125 26.335938 C 36.453125 26.40625 36.085938 26.605469 35.996094 26.582031 C 35.964844 26.578125 35.941406 26.605469 35.941406 26.648438 C 35.941406 26.691406 35.90625 26.707031 35.867188 26.679688 C 35.828125 26.65625 35.792969 26.664062 35.792969 26.699219 C 35.792969 26.757812 35.332031 26.953125 35.234375 26.933594 C 35.207031 26.929688 35.164062 26.957031 35.136719 27 C 35.113281 27.042969 35.027344 27.089844 34.945312 27.105469 C 34.867188 27.117188 34.675781 27.183594 34.523438 27.25 C 34.367188 27.316406 34.21875 27.367188 34.191406 27.359375 C 34.164062 27.355469 34.046875 27.390625 33.933594 27.4375 C 33.820312 27.484375 33.699219 27.503906 33.664062 27.484375 C 33.628906 27.460938 33.582031 27.472656 33.5625 27.511719 C 33.515625 27.582031 33.222656 27.636719 32.121094 27.785156 C 31.484375 27.867188 30.617188 27.882812 30.445312 27.808594 Z M 30.445312 27.808594 "/>
<path style=" stroke:none;fill-rule:nonzero;fill:rgb(58.823532%,77.64706%,6.666667%);fill-opacity:1;" d="M 12.996094 25.285156 C 12.351562 25.230469 10.1875 25.070312 8.1875 24.929688 C 4.222656 24.648438 3.78125 24.609375 3.78125 24.527344 C 3.78125 24.5 4.003906 24.453125 4.28125 24.429688 C 5.035156 24.359375 14.679688 23.722656 14.984375 23.722656 L 15.25 23.722656 L 15.199219 24.175781 C 15.125 24.789062 15.046875 25.03125 14.855469 25.230469 C 14.671875 25.429688 14.695312 25.429688 12.996094 25.285156 Z M 12.996094 25.285156 "/>
<path style=" stroke:none;fill-rule:nonzero;fill:rgb(58.823532%,77.64706%,6.666667%);fill-opacity:1;" d="M 13.398438 20.433594 C 12.976562 20.398438 10.628906 20.257812 8.1875 20.113281 C 0.445312 19.664062 0.628906 19.675781 0.75 19.554688 C 0.785156 19.519531 1.261719 19.457031 1.804688 19.417969 C 3.777344 19.273438 15.386719 18.613281 15.894531 18.617188 C 16.363281 18.617188 16.382812 18.660156 16.238281 19.464844 C 16.046875 20.53125 16.070312 20.515625 15.03125 20.503906 C 14.558594 20.496094 13.824219 20.464844 13.398438 20.433594 Z M 13.398438 20.433594 "/>
<path style=" stroke:none;fill-rule:nonzero;fill:rgb(58.823532%,77.64706%,6.666667%);fill-opacity:1;" d="M 15.382812 15.574219 C 15.28125 15.5625 13.613281 15.449219 11.675781 15.328125 C 4.691406 14.894531 3.519531 14.8125 3.265625 14.75 L 3.011719 14.6875 L 3.265625 14.679688 C 3.410156 14.675781 6.425781 14.492188 9.96875 14.269531 C 13.515625 14.050781 16.644531 13.871094 16.925781 13.871094 L 17.4375 13.871094 L 17.433594 14.144531 C 17.429688 14.292969 17.355469 14.679688 17.265625 15 L 17.109375 15.585938 L 16.335938 15.59375 C 15.914062 15.597656 15.484375 15.589844 15.382812 15.574219 Z M 15.382812 15.574219 "/>
<path style=" stroke:none;fill-rule:nonzero;fill:rgb(58.823532%,77.64706%,6.666667%);fill-opacity:1;" d="M 15.199219 39.871094 C 14.679688 39.78125 14.453125 41.074219 17.519531 26.644531 C 19.480469 17.421875 19.925781 15.390625 19.996094 15.316406 C 20.023438 15.289062 20.292969 15.347656 20.59375 15.445312 C 22.082031 15.929688 23.394531 16.132812 25.027344 16.132812 C 26.910156 16.132812 28.367188 15.871094 29.910156 15.261719 C 31.855469 14.488281 32.644531 13.921875 35.5 11.242188 C 37.515625 9.351562 37.78125 9.125 37.972656 9.125 C 38.324219 9.125 39.839844 10.925781 40.503906 12.136719 C 41.347656 13.667969 41.730469 15.199219 41.761719 17.171875 C 41.785156 18.496094 41.84375 18.4375 40.558594 18.320312 C 39.359375 18.207031 38.039062 18.265625 37.1875 18.46875 C 35.074219 18.972656 33.003906 20.265625 31.554688 21.996094 C 30.320312 23.46875 29.621094 24.871094 29 27.101562 C 28.847656 27.636719 28.742188 27.738281 28.316406 27.746094 C 28.128906 27.75 26.652344 27.777344 25.039062 27.804688 C 23.421875 27.835938 22.042969 27.882812 21.976562 27.914062 C 21.71875 28.03125 21.539062 28.742188 20.191406 34.964844 C 19.683594 37.3125 19.234375 39.34375 19.191406 39.476562 C 19.140625 39.632812 19.042969 39.746094 18.917969 39.792969 C 18.691406 39.882812 15.632812 39.945312 15.199219 39.871094 Z M 15.199219 39.871094 "/>
<path style=" stroke:none;fill-rule:nonzero;fill:rgb(58.823532%,77.64706%,6.666667%);fill-opacity:1;" d="M 24.597656 14.878906 C 23.945312 14.839844 23.546875 14.800781 23.191406 14.742188 C 22.433594 14.617188 21.246094 14.324219 20.828125 14.15625 C 20.644531 14.082031 20.558594 14.015625 20.511719 13.917969 C 20.425781 13.730469 20.503906 13.472656 20.859375 12.746094 C 21.855469 10.730469 23.453125 9.015625 25.347656 7.917969 C 26.109375 7.476562 27.226562 7.015625 28.058594 6.800781 C 28.800781 6.605469 29.421875 6.539062 30.617188 6.519531 C 31.71875 6.503906 32.527344 6.546875 33.050781 6.644531 C 33.546875 6.734375 34.238281 6.941406 34.8125 7.167969 C 35.390625 7.394531 35.847656 7.617188 36.429688 7.957031 L 36.757812 8.144531 L 35.691406 9.214844 C 34.085938 10.828125 33.382812 11.496094 32.671875 12.085938 C 31.914062 12.71875 31.28125 13.136719 30.398438 13.589844 C 28.859375 14.375 27.417969 14.777344 25.808594 14.871094 C 25.527344 14.890625 24.828125 14.894531 24.597656 14.878906 Z M 24.597656 14.878906 "/>
<path style=" stroke:none;fill-rule:nonzero;fill:rgb(3.529412%,10.196079%,19.607843%);fill-opacity:1;" d="M 22.265625 39.863281 C 21.992188 39.828125 21.96875 39.753906 22.066406 39.269531 C 22.359375 37.804688 23.671875 31.917969 23.945312 30.839844 L 24.089844 30.273438 L 24.351562 30.238281 C 24.492188 30.214844 26.222656 30.175781 28.191406 30.144531 C 31.730469 30.09375 32.238281 30.070312 33.410156 29.90625 C 37.875 29.285156 41.734375 25.945312 43.277344 21.355469 C 43.792969 19.828125 43.917969 19.007812 43.914062 17.238281 C 43.910156 15.484375 43.765625 14.605469 43.222656 13.042969 C 41.625 8.4375 37.644531 5.082031 32.996094 4.410156 C 32.199219 4.296875 30.472656 4.257812 29.542969 4.332031 C 25.433594 4.660156 21.890625 6.742188 19.335938 10.332031 C 19.066406 10.710938 18.730469 11.140625 18.585938 11.285156 C 18.328125 11.550781 18.324219 11.554688 17.9375 11.582031 C 17.140625 11.640625 15.347656 11.664062 14.800781 11.621094 C 14.195312 11.574219 14.0625 11.507812 14.125 11.28125 C 14.253906 10.8125 15.265625 8.976562 15.992188 7.898438 C 17.226562 6.054688 18.679688 4.539062 20.324219 3.371094 C 22.765625 1.640625 25.828125 0.539062 29.125 0.203125 C 30.042969 0.109375 32.136719 0.125 33.019531 0.230469 C 36.308594 0.621094 38.914062 1.765625 41.652344 4.015625 C 44.960938 6.734375 47.035156 10.386719 47.746094 14.738281 C 47.84375 15.328125 47.84375 19.351562 47.746094 20.027344 C 47.605469 21.011719 47.234375 22.335938 46.796875 23.425781 C 45.273438 27.230469 42.199219 30.570312 38.535156 32.394531 C 37.53125 32.898438 36.328125 33.339844 35.199219 33.621094 C 33.730469 33.988281 32.9375 34.058594 29.8125 34.109375 L 27.636719 34.144531 L 27.492188 34.308594 C 27.328125 34.488281 27.132812 35.230469 26.636719 37.550781 C 26.210938 39.539062 26.128906 39.789062 25.882812 39.855469 C 25.746094 39.890625 22.550781 39.898438 22.265625 39.863281 Z M 22.265625 39.863281 "/>
<path style=" stroke:none;fill-rule:nonzero;fill:rgb(3.529412%,10.196079%,19.607843%);fill-opacity:1;" d="M 22.128906 39.792969 C 22.082031 39.761719 22.039062 39.695312 22.039062 39.636719 C 22.039062 39.371094 23.738281 31.71875 24.066406 30.5 C 24.101562 30.363281 24.152344 30.300781 24.242188 30.277344 C 24.308594 30.261719 26.066406 30.210938 28.148438 30.167969 C 32.378906 30.082031 33.089844 30.035156 34.242188 29.78125 C 38.378906 28.863281 41.828125 25.675781 43.28125 21.425781 C 43.722656 20.132812 43.882812 19.253906 43.929688 17.832031 C 43.996094 15.769531 43.769531 14.363281 43.082031 12.59375 C 41.308594 8.023438 37.144531 4.769531 32.5 4.335938 C 31.660156 4.257812 29.808594 4.269531 29.042969 4.359375 C 26.195312 4.691406 23.792969 5.792969 21.503906 7.816406 C 20.949219 8.304688 20.164062 9.191406 19.507812 10.066406 C 18.667969 11.179688 18.4375 11.441406 18.207031 11.519531 C 18.066406 11.566406 17.527344 11.582031 16.222656 11.585938 C 14.3125 11.589844 14.148438 11.570312 14.148438 11.351562 C 14.148438 11.070312 15.3125 8.960938 16.117188 7.777344 C 18.378906 4.457031 21.398438 2.210938 25.179688 1.039062 C 26.964844 0.488281 28.503906 0.226562 30.292969 0.171875 C 34.042969 0.0585938 37.046875 0.875 39.914062 2.773438 C 42.71875 4.632812 44.789062 6.957031 46.15625 9.769531 C 46.816406 11.136719 47.238281 12.386719 47.597656 14.066406 L 47.761719 14.839844 L 47.765625 17.367188 C 47.765625 19.792969 47.757812 19.921875 47.648438 20.472656 C 47.101562 23.164062 45.960938 25.5625 44.195312 27.753906 C 41.828125 30.6875 38.679688 32.726562 35.175781 33.59375 C 33.746094 33.945312 33.167969 34 30.085938 34.070312 L 27.621094 34.128906 L 27.507812 34.253906 C 27.332031 34.441406 27.171875 35.007812 26.6875 37.1875 C 26.222656 39.265625 26.09375 39.710938 25.933594 39.796875 C 25.800781 39.867188 22.253906 39.863281 22.128906 39.792969 Z M 22.128906 39.792969 "/>
</g>
</svg>
